<svg xmlns="http://www.w3.org/2000/svg" viewBox="0 0 160 160"><defs><style>.cls-1{fill:#1e407a;}.cls-2,.cls-3{fill:none;stroke-miterlimit:10;stroke-width:1.35px;}.cls-2{stroke:#fff;}.cls-3{stroke:#63cbe5;}</style></defs><g id="Circle"><circle class="cls-1" cx="80" cy="80" r="80"/></g><g id="Green"><g id="Provider"><path class="cls-2" d="M121.89,114.42a125.23,125.23,0,0,1-41.4,7,125.23,125.23,0,0,1-41.4-7L41.7,87.67A17,17,0,0,1,52.34,73.51l15.22-6a13.11,13.11,0,0,0,25.86,0l15.21,6a17,17,0,0,1,10.65,14.16Z"/><path class="cls-3" d="M90.8,62.45a22.26,22.26,0,0,1,12,19.77V93.74"/><path class="cls-3" d="M58.19,84.43V82.22a22.26,22.26,0,0,1,12-19.77"/><circle class="cls-3" cx="102.79" cy="98.7" r="4.5"/><path class="cls-3" d="M53.16,106.11l-2.89-1.68V92.66a7.92,7.92,0,1,1,15.83,0v11.77l-3.15,2"/><path class="cls-2" d="M100.32,45.51A19.83,19.83,0,1,1,80.49,25.69,19.82,19.82,0,0,1,100.32,45.51Z"/></g></g></svg>